<svg width="32" height="32" viewBox="0 0 32 32" fill="none" xmlns="http://www.w3.org/2000/svg">
<g clip-path="url(#clip0_373_337)">
<path d="M22.8604 12.4061C22.6376 12.4966 22.4086 12.5731 22.1745 12.6352C22.4516 12.3479 22.6629 12.0099 22.7919 11.64C22.8208 11.5571 22.7908 11.4664 22.7165 11.4122C22.6422 11.3579 22.5391 11.3514 22.4573 11.3958C21.9603 11.666 21.424 11.8602 20.8617 11.9738C20.2953 11.4665 19.526 11.1777 18.7307 11.1777C17.052 11.1777 15.6863 12.4296 15.6863 13.9684C15.6863 14.0896 15.6946 14.2101 15.7112 14.329C13.6281 14.1613 11.6914 13.2228 10.3616 11.7274C10.3142 11.6741 10.2411 11.6454 10.1664 11.6509C10.0916 11.6562 10.0244 11.6949 9.98661 11.7543C9.71688 12.1786 9.57428 12.6638 9.57428 13.1575C9.57428 13.8299 9.83619 14.468 10.2988 14.9665C10.1582 14.9218 10.0216 14.866 9.89136 14.7997C9.82141 14.764 9.73605 14.7646 9.66655 14.8011C9.59702 14.8376 9.55342 14.9048 9.55159 14.9782C9.55127 14.9906 9.55127 15.003 9.55127 15.0155C9.55127 16.0192 10.1406 16.9229 11.0416 17.4154C10.9642 17.4083 10.8868 17.3981 10.81 17.3846C10.7307 17.3707 10.6493 17.3962 10.5958 17.4516C10.5423 17.5069 10.5246 17.5841 10.5493 17.6545C10.8828 18.609 11.7414 19.311 12.7794 19.5251C11.9185 20.0194 10.9339 20.2783 9.90042 20.2783C9.68476 20.2783 9.46787 20.2667 9.2556 20.2436C9.15015 20.2322 9.04933 20.2892 9.01341 20.3811C8.9775 20.4731 9.01556 20.5756 9.10528 20.6284C10.433 21.4087 11.9683 21.8212 13.545 21.8212C16.6445 21.8212 18.5836 20.4814 19.6644 19.3574C21.0121 17.9558 21.785 16.1007 21.785 14.2678C21.785 14.1912 21.7838 14.1139 21.7812 14.0368C22.3129 13.6696 22.7707 13.2252 23.1432 12.7143C23.1998 12.6368 23.1937 12.5342 23.1281 12.4628C23.0627 12.3913 22.9536 12.3682 22.8604 12.4061Z" fill="white"/>
</g>
<circle cx="16" cy="16" r="15.75" stroke="white" stroke-opacity="0.5" stroke-width="0.5"/>
<defs>
<clipPath id="clip0_373_337">
<rect width="14.1818" height="13" fill="white" transform="translate(9 10)"/>
</clipPath>
</defs>
</svg>
