<svg width="60" height="60" viewBox="0 0 60 60" fill="none" xmlns="http://www.w3.org/2000/svg">
<g clip-path="url(#clip0_1333_1902)">
<path d="M49.4864 22.9151C49.0287 22.4576 48.2867 22.4576 47.8291 22.9151C47.3714 23.3728 47.3714 24.1148 47.8291 24.5725C47.8471 24.5905 47.8658 24.6089 47.884 24.6258C48.1102 24.8375 48.3979 24.9423 48.685 24.9423C48.9976 24.9423 49.3098 24.8177 49.5405 24.5715C49.9829 24.0994 49.9587 23.3576 49.4864 22.9151Z" fill="white"/>
<path d="M47.1055 20.9904C46.4347 20.5349 45.746 20.1286 45.0586 19.7826C41.1696 17.8257 37.0485 17.4329 33.1406 18.6465C32.5225 18.8385 32.1769 19.4951 32.369 20.1132C32.561 20.7313 33.2173 21.0766 33.8357 20.8847C37.1526 19.8545 40.669 20.1974 44.0049 21.876C44.5932 22.1724 45.2102 22.5368 45.7891 22.9295C45.9908 23.0664 46.2197 23.1321 46.4462 23.1321C46.8214 23.1321 47.1902 22.9523 47.4169 22.6183C47.7804 22.0829 47.6409 21.354 47.1055 20.9904Z" fill="white"/>
<path d="M57.767 36.1556C57.2865 35.1478 56.491 33.4788 56.4767 32.9268C57.847 29.549 57.3471 25.811 55.0646 22.3919C51.5544 17.1333 44.3603 13.3166 37.9588 13.3166C34.5749 13.3166 31.2705 14.1235 28.2977 15.6639C27.4449 10.9909 23.3466 7.43646 18.4311 7.43646C12.8991 7.43646 8.39868 11.9369 8.39868 17.4687C8.39868 20.9882 10.1923 24.1882 13.1963 26.0287C14.0623 26.5593 14.2583 27.018 14.3279 27.7695V31.7706V34.6268C14.3279 35.9353 15.3922 36.9998 16.7003 36.9998H17.0988C17.7425 42.1298 20.2252 46.7874 24.1662 50.2148C24.2033 50.3306 24.3117 50.8732 23.846 52.4924C23.4833 53.7538 22.9267 55.155 22.4358 56.3913C22.1072 57.2186 21.8234 57.9331 21.6518 58.4733C21.5387 58.8294 21.6023 59.2183 21.8229 59.52C22.0437 59.8217 22.395 60 22.7687 60H39.4966C40.0462 60 40.8011 59.7539 41.2763 58.5815C41.4832 58.0712 41.6182 57.4574 41.7612 56.8074C41.9005 56.1741 42.2269 54.6908 42.5516 54.5117C42.5518 54.5117 42.5708 54.5085 42.6166 54.5155C42.6767 54.5251 42.7375 54.5297 42.7985 54.5297C44.5503 54.5297 45.9817 54.6092 47.2447 54.6791C50.9488 54.8847 53.1848 55.0088 55.1461 52.1836C56.1436 50.7467 56.0305 48.651 55.9109 46.4323C55.8492 45.2888 55.7856 44.1085 55.8986 43.1273C56.1031 42.9259 56.6152 42.5743 56.9363 42.3539C58.041 41.5951 59.0843 40.8787 59.0843 39.7895C59.0847 38.9615 58.5839 37.8692 57.767 36.1556ZM14.4209 24.0299C12.1176 22.619 10.7425 20.1663 10.7425 17.4686C10.7425 13.229 14.1917 9.78009 18.4312 9.78009C22.6708 9.78009 26.1198 13.2291 26.1198 17.4686C26.1198 20.1663 24.7449 22.6191 22.4414 24.0301C21.3468 24.701 20.6962 25.4835 20.3874 26.5408L18.4308 26.5401L16.4752 26.5408C16.1662 25.4836 15.5157 24.701 14.4209 24.0299ZM20.1907 28.8847V30.5986H16.6719V28.8847H20.1907ZM16.7006 34.656C16.6876 34.656 16.6719 34.6398 16.6719 34.6267V32.9423H20.1907V34.6267C20.1907 34.6399 20.1749 34.656 20.1617 34.656H16.7006ZM55.6098 40.4216C54.6012 41.1144 53.73 41.7125 53.6016 42.6177C53.4251 43.8594 53.4992 45.2315 53.5706 46.5583C53.6595 48.2044 53.76 50.0703 53.221 50.8469C52.055 52.5266 51.0464 52.5429 47.3746 52.3389C46.1631 52.2716 44.6599 52.1883 42.8776 52.1857C42.1931 52.1051 41.0349 52.2336 40.2621 53.736C39.8695 54.4989 39.6586 55.4576 39.4725 56.3033C39.3789 56.7284 39.2476 57.3256 39.1245 57.656H24.4558C24.5071 57.5265 24.5601 57.3931 24.6144 57.2562C26.3026 53.0055 27.3718 49.8878 25.7444 48.4809C22.2948 45.4974 20.095 41.4575 19.4642 36.9997H20.1618C21.4702 36.9997 22.5346 35.9352 22.5346 34.6267V31.7705V27.7717C22.6041 27.0188 22.7994 26.5597 23.6662 26.0285C26.4401 24.3291 28.1806 21.4701 28.4311 18.271C31.3073 16.5618 34.5881 15.6602 37.9589 15.6602C43.5426 15.6602 50.0586 19.1136 53.1154 23.693C54.4255 25.6556 55.691 28.709 54.2792 32.1086C53.8193 33.2156 54.5011 34.751 55.6514 37.1641C56.0238 37.9453 56.5629 39.0761 56.7056 39.6044C56.4635 39.8354 55.943 40.1928 55.6098 40.4216Z" fill="white"/>
<path d="M24.1793 15.8129C23.8332 14.5303 22.9729 13.503 21.6913 12.8417C21.1161 12.5454 20.4094 12.7708 20.1125 13.3462C19.8159 13.9215 20.0416 14.6282 20.6169 14.9248C21.3166 15.2858 21.7418 15.7761 21.9164 16.4233C22.1928 17.448 21.7747 18.5567 21.5912 18.8446C21.2433 19.3905 21.4037 20.1149 21.9494 20.4629C22.1447 20.5874 22.3627 20.6466 22.5783 20.6466C22.9653 20.6466 23.3441 20.4552 23.5674 20.1046C24.0673 19.3208 24.6427 17.5306 24.1793 15.8129Z" fill="white"/>
<path d="M18.4311 0C17.7839 0 17.2593 0.524881 17.2593 1.17187V4.51264C17.2593 5.15963 17.7839 5.68451 18.4311 5.68451C19.0783 5.68451 19.603 5.15963 19.603 4.51264V1.17187C19.603 0.524881 19.0783 0 18.4311 0Z" fill="white"/>
<path d="M5.42841 16.3435H2.08764C1.44042 16.3435 0.915771 16.8684 0.915771 17.5154C0.915771 18.1626 1.44042 18.6872 2.08764 18.6872H5.42853C6.07563 18.6872 6.60028 18.1626 6.60028 17.5154C6.60028 16.8684 6.07552 16.3435 5.42841 16.3435Z" fill="white"/>
<path d="M12.9442 5.66749L11.2743 2.77555C10.9507 2.21504 10.2338 2.02321 9.67343 2.34665C9.11304 2.67032 8.92097 3.38692 9.24464 3.94742L10.9146 6.83936C11.1317 7.21542 11.5255 7.42553 11.9305 7.42553C12.1293 7.42553 12.3309 7.37491 12.5153 7.26827C13.0758 6.9446 13.2679 6.228 12.9442 5.66749Z" fill="white"/>
<path d="M7.75528 9.99899L4.86299 8.32908C4.3026 8.00564 3.58577 8.19771 3.26222 8.75798C2.93855 9.31849 3.13062 10.0351 3.69112 10.3588L6.58341 12.0287C6.76787 12.1353 6.96943 12.1859 7.16818 12.1859C7.57318 12.1859 7.96704 11.9758 8.18419 11.5998C8.50786 11.0395 8.31579 10.3227 7.75528 9.99899Z" fill="white"/>
<path d="M33.6004 8.75783C33.2767 8.19733 32.5601 8.00526 31.9997 8.32893L29.1074 9.99884C28.5469 10.3225 28.3548 11.0393 28.6785 11.5996C28.8955 11.9757 29.2894 12.1858 29.6944 12.1858C29.8931 12.1858 30.0947 12.1352 30.2793 12.0285L33.1715 10.3586C33.7321 10.0349 33.9241 9.31834 33.6004 8.75783Z" fill="white"/>
<path d="M8.18478 23.4312C7.86134 22.8707 7.14486 22.6789 6.58424 23.0021L3.69124 24.672C3.13074 24.9954 2.93855 25.7122 3.2621 26.2728C3.47914 26.6488 3.87312 26.8589 4.27812 26.8589C4.47687 26.8589 4.67831 26.8083 4.86288 26.7019L7.75576 25.032C8.31626 24.7085 8.50845 23.9917 8.18478 23.4312Z" fill="white"/>
<path d="M12.2741 28.1796C11.7138 27.8562 10.997 28.0482 10.6733 28.6085L9.24431 31.0838C8.92076 31.6444 9.11283 32.3612 9.67333 32.6846C9.8579 32.7913 10.0593 32.8419 10.2581 32.8419C10.6631 32.8419 11.0571 32.6318 11.2741 32.2557L12.7031 29.7804C13.0268 29.2199 12.8347 28.5033 12.2741 28.1796Z" fill="white"/>
<path d="M27.1892 2.34669C26.6286 2.02302 25.9121 2.21509 25.5884 2.77559L23.9185 5.66754C23.5948 6.22804 23.7868 6.94476 24.3473 7.26831C24.5319 7.37495 24.7334 7.42558 24.9322 7.42558C25.3372 7.42558 25.731 7.21546 25.9482 6.83941L27.6181 3.94746C27.9418 3.38696 27.7497 2.67036 27.1892 2.34669Z" fill="white"/>
</g>
<defs>
<clipPath id="clip0_1333_1902">
<rect width="60" height="60" fill="white"/>
</clipPath>
</defs>
</svg>
