<svg width="12" height="12" viewBox="0 0 12 12" fill="none" xmlns="http://www.w3.org/2000/svg">
<g clip-path="url(#clip0_373_321)">
<path d="M9.96023 2.7601H9.60023V1.3201C9.60023 0.923018 9.27719 0.600098 8.88023 0.600098H3.12023C2.72327 0.600098 2.40023 0.923018 2.40023 1.3201V2.7601H2.04023C1.04771 2.7601 0.240234 3.56758 0.240234 4.5601V8.1601C0.240234 8.75566 0.724674 9.2401 1.32023 9.2401H2.40023V10.6801C2.40023 11.0772 2.72327 11.4001 3.12023 11.4001H8.88023C9.27719 11.4001 9.60023 11.0772 9.60023 10.6801V9.2401H10.6802C11.2758 9.2401 11.7602 8.75566 11.7602 8.1601V4.5601C11.7602 3.56758 10.9528 2.7601 9.96023 2.7601ZM3.12023 1.3201H8.88023V2.7601H3.12023V1.3201ZM3.12023 10.6801V7.0801H8.88023V10.6801H3.12023ZM11.0402 8.1601C11.0402 8.35858 10.8788 8.5201 10.6802 8.5201H9.60023V7.0801H9.96023C10.1592 7.0801 10.3202 6.91894 10.3202 6.7201C10.3202 6.52126 10.1592 6.3601 9.96023 6.3601H2.04023C1.84127 6.3601 1.68023 6.52126 1.68023 6.7201C1.68023 6.91894 1.84127 7.0801 2.04023 7.0801H2.40023V8.5201H1.32023C1.12163 8.5201 0.960234 8.35858 0.960234 8.1601V4.5601C0.960234 3.96454 1.44467 3.4801 2.04023 3.4801H9.96023C10.5558 3.4801 11.0402 3.96454 11.0402 4.5601V8.1601ZM7.80023 8.1601C7.80023 8.35894 7.63919 8.5201 7.44023 8.5201H4.56023C4.36127 8.5201 4.20023 8.35894 4.20023 8.1601C4.20023 7.96126 4.36127 7.8001 4.56023 7.8001H7.44023C7.63919 7.8001 7.80023 7.96126 7.80023 8.1601ZM7.80023 9.6001C7.80023 9.79894 7.63919 9.9601 7.44023 9.9601H4.56023C4.36127 9.9601 4.20023 9.79894 4.20023 9.6001C4.20023 9.40126 4.36127 9.2401 4.56023 9.2401H7.44023C7.63919 9.2401 7.80023 9.40126 7.80023 9.6001ZM10.3202 4.5601C10.3202 4.75894 10.1592 4.9201 9.96023 4.9201H9.24023C9.04127 4.9201 8.88023 4.75894 8.88023 4.5601C8.88023 4.36126 9.04127 4.2001 9.24023 4.2001H9.96023C10.1592 4.2001 10.3202 4.36126 10.3202 4.5601Z" fill="white"/>
</g>
<defs>
<clipPath id="clip0_373_321">
<rect width="12" height="12" fill="white"/>
</clipPath>
</defs>
</svg>
