<svg width="32" height="32" viewBox="0 0 32 32" fill="none" xmlns="http://www.w3.org/2000/svg">
<path d="M19.3488 9.00291L17.5172 9C15.4594 9 14.1296 10.3523 14.1296 12.4454V14.034H12.288C12.1289 14.034 12 14.1619 12 14.3196V16.6213C12 16.779 12.129 16.9067 12.288 16.9067H14.1296V22.7145C14.1296 22.8723 14.2585 23 14.4176 23H16.8204C16.9795 23 17.1084 22.8721 17.1084 22.7145V16.9067H19.2617C19.4208 16.9067 19.5497 16.779 19.5497 16.6213L19.5506 14.3196C19.5506 14.2439 19.5201 14.1713 19.4662 14.1177C19.4123 14.0641 19.3388 14.034 19.2624 14.034H17.1084V12.6873C17.1084 12.0401 17.264 11.7115 18.1146 11.7115L19.3485 11.7111C19.5075 11.7111 19.6364 11.5832 19.6364 11.4256V9.28838C19.6364 9.13094 19.5076 9.0032 19.3488 9.00291Z" fill="white"/>
<circle cx="16" cy="16" r="15.75" stroke="white" stroke-opacity="0.5" stroke-width="0.5"/>
</svg>
