<svg width="18" height="18" viewBox="0 0 18 18" fill="none" xmlns="http://www.w3.org/2000/svg">
<path d="M16.8482 16.1295L12.7172 12.0646C13.799 10.8893 14.4637 9.33495 14.4637 7.62455C14.4632 3.96568 11.4495 1 7.73158 1C4.0137 1 1 3.96568 1 7.62455C1 11.2834 4.0137 14.2491 7.73158 14.2491C9.33796 14.2491 10.8113 13.6935 11.9686 12.7697L16.1155 16.8507C16.3176 17.0498 16.6457 17.0498 16.8477 16.8507C17.0502 16.6517 17.0502 16.3286 16.8482 16.1295ZM7.73158 13.2299C4.58585 13.2299 2.03575 10.7203 2.03575 7.62455C2.03575 4.52881 4.58585 2.01923 7.73158 2.01923C10.8773 2.01923 13.4274 4.52881 13.4274 7.62455C13.4274 10.7203 10.8773 13.2299 7.73158 13.2299Z" fill="#FBF9F6" stroke="#FBF9F6" stroke-width="0.4"/>
</svg>
