<svg width="60" height="60" viewBox="0 0 60 60" fill="none" xmlns="http://www.w3.org/2000/svg">
<path d="M34.6875 58.125C34.17 58.125 33.75 57.705 33.75 57.1875V19.5169C33.75 19.02 34.1363 18.6113 34.6313 18.5813C43.1738 18.0713 48.6844 16.0238 51.2082 14.85C51.4463 14.7375 51.6263 14.5425 51.7144 14.2969C51.8007 14.0531 51.7857 13.7888 51.6713 13.5544C51.4444 13.0894 50.9063 12.8869 50.4432 13.0875C47.2069 14.5013 40.1082 16.875 28.9144 16.875C17.7713 16.875 10.8282 14.5144 7.6838 13.1081C7.22817 12.9038 6.6863 13.0988 6.45567 13.5563C6.33567 13.7925 6.31692 14.0588 6.4013 14.3044C6.48567 14.55 6.6638 14.7488 6.90192 14.8613C9.39567 16.0444 14.8632 18.1031 23.4919 18.5981C23.9869 18.6263 24.375 19.0369 24.375 19.5338V57.1875C24.375 57.705 23.955 58.125 23.4375 58.125C22.92 58.125 22.5 57.705 22.5 57.1875V20.4131C14.0569 19.815 8.62505 17.7563 6.09567 16.5563C5.3963 16.2244 4.87505 15.6394 4.62567 14.91C4.3763 14.1806 4.43255 13.3988 4.78317 12.7069C5.46755 11.3569 7.08192 10.7831 8.4488 11.3944C11.4582 12.7406 18.1182 15 28.9144 15C39.7688 15 46.59 12.7256 49.6932 11.37C51.0825 10.7644 52.6876 11.3644 53.3569 12.7331C53.6944 13.4231 53.7394 14.2013 53.4825 14.9231C53.2257 15.6469 52.7007 16.2244 52.0013 16.5488C49.4438 17.7394 43.98 19.7813 35.625 20.3944V57.1875C35.625 57.705 35.205 58.125 34.6875 58.125Z" fill="white"/>
<path d="M29.0625 37.5C28.545 37.5 28.125 37.92 28.125 38.4375V57.1875C28.125 57.705 28.545 58.125 29.0625 58.125C29.58 58.125 30 57.705 30 57.1875V38.4375C30 37.92 29.58 37.5 29.0625 37.5Z" fill="white"/>
<path d="M29.0645 13.125C25.9632 13.125 23.4395 10.6013 23.4395 7.5C23.4395 4.39875 25.9632 1.875 29.0645 1.875C32.1657 1.875 34.6895 4.39875 34.6895 7.5C34.6895 10.6013 32.1657 13.125 29.0645 13.125V13.125ZM29.0645 3.75C26.9945 3.75 25.3145 5.43 25.3145 7.5C25.3145 9.57 26.9945 11.25 29.0645 11.25C31.1345 11.25 32.8145 9.57 32.8145 7.5C32.8145 5.43 31.1326 3.75 29.0645 3.75V3.75Z" fill="white"/>
<path d="M17.8125 37.5C17.4675 37.5 17.1375 37.3106 16.9725 36.9825L10.3125 23.6587L3.65065 36.9806C3.41628 37.4437 2.85565 37.6294 2.39253 37.4006C1.9294 37.1681 1.7419 36.6056 1.97253 36.1425L9.47253 21.1425C9.79128 20.5069 10.8319 20.5069 11.1507 21.1425L18.6507 36.1425C18.8832 36.6056 18.6938 37.1681 18.2307 37.4006C18.0975 37.4681 17.955 37.5 17.8125 37.5V37.5Z" fill="white"/>
<path d="M10.3125 45C7.31063 45 4.51125 43.3856 3.0075 40.785C2.74687 40.3369 2.90063 39.7631 3.34875 39.5044C3.795 39.2456 4.37063 39.3994 4.62938 39.8456C5.80125 41.8687 7.97812 43.125 10.3125 43.125C13.6125 43.125 16.3519 40.6763 16.8075 37.5H2.8125C2.295 37.5 1.875 37.08 1.875 36.5625C1.875 36.045 2.295 35.625 2.8125 35.625H17.8125C18.33 35.625 18.75 36.045 18.75 36.5625C18.75 41.2144 14.9644 45 10.3125 45V45Z" fill="white"/>
<path d="M55.3125 37.5C54.9675 37.5 54.6375 37.3106 54.4725 36.9825L47.8125 23.6587L41.1507 36.9806C40.9182 37.4437 40.3575 37.6294 39.8925 37.4006C39.4294 37.1681 39.2419 36.6056 39.4725 36.1425L46.9725 21.1425C47.2913 20.5069 48.3319 20.5069 48.6507 21.1425L56.1507 36.1425C56.3832 36.6056 56.1938 37.1681 55.7307 37.4006C55.5975 37.4681 55.455 37.5 55.3125 37.5Z" fill="white"/>
<path d="M47.8125 45C44.8106 45 42.0113 43.3856 40.5075 40.785C40.2469 40.3369 40.4006 39.7631 40.8487 39.5044C41.2969 39.2456 41.8687 39.3994 42.1294 39.8456C43.3012 41.8687 45.4781 43.125 47.8125 43.125C51.1125 43.125 53.8519 40.6763 54.3075 37.5H40.3125C39.795 37.5 39.375 37.08 39.375 36.5625C39.375 36.045 39.795 35.625 40.3125 35.625H55.3125C55.83 35.625 56.25 36.045 56.25 36.5625C56.25 41.2144 52.4644 45 47.8125 45V45Z" fill="white"/>
</svg>
