<svg width="60" height="60" viewBox="0 0 60 60" fill="none" xmlns="http://www.w3.org/2000/svg">
<g clip-path="url(#clip0_1333_1949)">
<path d="M18.9797 40.6734C17.6878 40.1475 17.6203 39.7163 11.3475 34.2497C10.7937 33.7507 10.097 33.4385 9.35605 33.3574C8.61506 33.2763 7.86733 33.4304 7.21875 33.7978L6.73969 27.5738C6.66792 26.7046 6.27291 25.8939 5.63265 25.3017C4.99238 24.7095 4.15338 24.3788 3.28125 24.375C2.65965 24.375 2.06351 24.6219 1.62397 25.0615C1.18443 25.501 0.9375 26.0971 0.9375 26.7188V38.4375C0.9375 41.5144 11.4375 52.7709 12.1687 54.9375V58.125C12.1687 58.3736 12.2675 58.6121 12.4433 58.7879C12.6192 58.9637 12.8576 59.0625 13.1062 59.0625C13.3549 59.0625 13.5933 58.9637 13.7692 58.7879C13.945 58.6121 14.0437 58.3736 14.0437 58.125V54.8719C14.0437 52.8169 2.87063 40.6406 2.8125 38.4375V26.7188C2.8125 26.5944 2.86189 26.4752 2.94979 26.3873C3.0377 26.2994 3.15693 26.25 3.28125 26.25C3.68156 26.2521 4.06654 26.4042 4.36033 26.6761C4.65412 26.948 4.8354 27.3201 4.86844 27.7191L5.56125 36.6675C5.57789 37.2792 5.77023 37.8731 6.11531 38.3784L13.3997 45.6628C13.5765 45.8336 13.8133 45.9281 14.0591 45.9259C14.3049 45.9238 14.5401 45.8252 14.7139 45.6514C14.8877 45.4776 14.9863 45.2424 14.9884 44.9966C14.9906 44.7508 14.8961 44.514 14.7253 44.3372L7.54688 37.1588C7.40727 36.8397 7.39505 36.4794 7.51272 36.1516C7.63039 35.8239 7.86904 35.5536 8.17969 35.3963C8.48836 35.2401 8.83698 35.1809 9.1799 35.2262C9.52282 35.2715 9.84406 35.4194 10.1016 35.6503C16.0547 40.8066 16.5047 41.6878 18.27 42.4097C22.5384 44.1562 24.375 48.5344 24.375 49.6875C24.375 52.5553 23.4431 53.4562 23.4431 55.4241V58.125C23.4431 58.3736 23.5419 58.6121 23.7177 58.7879C23.8935 58.9637 24.132 59.0625 24.3806 59.0625C24.6293 59.0625 24.8677 58.9637 25.0435 58.7879C25.2194 58.6121 25.3181 58.3736 25.3181 58.125V55.4241C25.3181 53.8406 26.25 52.8225 26.25 49.6875C26.25 47.5781 23.7525 42.6225 18.9797 40.6734Z" fill="white"/>
<path d="M56.7188 24.375C55.8469 24.3795 55.0083 24.7106 54.3685 25.3029C53.7286 25.8952 53.3339 26.7057 53.2622 27.5747L52.7812 33.7959C52.1329 33.4298 51.3859 33.2765 50.6458 33.3578C49.9057 33.439 49.2097 33.7507 48.6563 34.2488C42.375 39.7247 42.315 40.1466 41.025 40.6734C36.2475 42.6225 33.75 47.5781 33.75 49.6875C33.75 52.8178 34.6819 53.8678 34.6819 55.4241V58.125C34.6819 58.3736 34.7806 58.6121 34.9565 58.7879C35.1323 58.9637 35.3707 59.0625 35.6194 59.0625C35.868 59.0625 36.1065 58.9637 36.2823 58.7879C36.4581 58.6121 36.5569 58.3736 36.5569 58.125V55.4241C36.5569 53.4647 35.625 52.5544 35.625 49.6875C35.625 48.5344 37.4616 44.1516 41.73 42.4097C43.4709 41.6981 43.6941 41.0259 49.8984 35.6503C51.1397 34.5469 53.1056 35.6869 52.4522 37.1597L45.2747 44.3372C45.1039 44.514 45.0094 44.7508 45.0116 44.9966C45.0137 45.2424 45.1123 45.4776 45.2861 45.6514C45.4599 45.8252 45.6951 45.9238 45.9409 45.9259C46.1867 45.9281 46.4235 45.8336 46.6003 45.6628L53.8856 38.3784C54.2072 37.9387 54.3954 37.4157 54.4275 36.8719L55.1316 27.72C55.2469 26.25 57.1875 25.8253 57.1875 26.7188V38.4375C57.1575 39.5869 53.1338 44.7188 50.7291 47.7844C46.9153 52.6481 45.9563 53.9897 45.9563 54.8728V58.125C45.9563 58.3736 46.055 58.6121 46.2308 58.7879C46.4067 58.9637 46.6451 59.0625 46.8938 59.0625C47.1424 59.0625 47.3808 58.9637 47.5567 58.7879C47.7325 58.6121 47.8313 58.3736 47.8313 58.125V54.9375C48.0806 54.1969 50.3625 51.2812 52.2056 48.9375C56.4722 43.5 59.0625 40.0772 59.0625 38.4375V26.7188C59.0625 26.0971 58.8156 25.501 58.376 25.0615C57.9365 24.6219 57.3404 24.375 56.7188 24.375Z" fill="white"/>
<path d="M30 9.375C31.055 9.30809 32.0408 8.82731 32.7431 8.03724C33.4454 7.24718 33.8073 6.21177 33.75 5.15625C33.8073 4.10073 33.4454 3.06532 32.7431 2.27526C32.0408 1.48519 31.055 1.00441 30 0.9375C28.9451 1.00441 27.9592 1.48519 27.257 2.27526C26.5547 3.06532 26.1928 4.10073 26.25 5.15625C26.1928 6.21177 26.5547 7.24718 27.257 8.03724C27.9592 8.82731 28.9451 9.30809 30 9.375ZM30 2.8125C30.5558 2.88304 31.0623 3.16712 31.4123 3.60459C31.7622 4.04205 31.9282 4.59855 31.875 5.15625C31.9282 5.71395 31.7622 6.27045 31.4123 6.70791C31.0623 7.14538 30.5558 7.42946 30 7.5C29.4443 7.42946 28.9378 7.14538 28.5878 6.70791C28.2378 6.27045 28.0719 5.71395 28.125 5.15625C28.0719 4.59855 28.2378 4.04205 28.5878 3.60459C28.9378 3.16712 29.4443 2.88304 30 2.8125Z" fill="white"/>
<path d="M35.625 37.5C35.625 36.7209 35.4216 32.7253 35.2041 28.6725C36.4228 29.4356 39.375 29.385 39.375 26.2584C39.375 22.6462 37.5459 15.7359 36.9862 14.4459C36.0956 12.3834 33.6112 11.2584 30 11.2584C26.3888 11.2584 23.9063 12.3919 23.0138 14.4459C22.4541 15.7359 20.625 22.6462 20.625 26.2584C20.625 29.4553 23.6353 29.399 24.7959 28.6725C24.5784 32.7253 24.375 36.7209 24.375 37.5C24.375 40.11 26.0438 40.3125 26.5556 40.3125C29.0869 40.3125 29.4028 38.625 29.8087 36.479L29.9963 35.3053L30.1837 36.479C30.5972 38.625 30.9178 40.3125 33.4444 40.3125C33.9563 40.3125 35.625 40.11 35.625 37.5ZM33.4444 38.4375C32.5622 38.4375 32.4703 38.4375 32.0325 36.1294L30.9441 29.0044C30.9271 28.8887 30.8866 28.7778 30.825 28.6784C30.7634 28.5791 30.682 28.4935 30.5859 28.4269C30.4129 28.2751 30.1877 28.1964 29.9578 28.2075C29.7379 28.2134 29.527 28.2964 29.3621 28.4421C29.1972 28.5878 29.0889 28.7868 29.0559 29.0044L28.0312 35.7909L27.9675 36.1294C27.5297 38.4375 27.4378 38.4375 26.5556 38.4375C26.28 38.4375 26.25 37.7812 26.25 37.5C26.25 35.9128 27.1762 19.5562 27.1875 19.3912C27.1966 19.2681 27.1814 19.1444 27.1427 19.0272C27.104 18.91 27.0426 18.8015 26.962 18.708C26.8814 18.6145 26.7831 18.5378 26.6729 18.4823C26.5626 18.4267 26.4425 18.3935 26.3194 18.3844C26.1963 18.3753 26.0726 18.3905 25.9553 18.4292C25.8381 18.4679 25.7296 18.5293 25.6361 18.6099C25.5426 18.6905 25.4659 18.7887 25.4104 18.899C25.3549 19.0093 25.3216 19.1294 25.3125 19.2525C25.1327 21.4887 24.83 23.7133 24.4059 25.9162C23.9138 27.6844 22.5 27.5456 22.5 26.2584C22.5 22.934 24.2813 16.2272 24.735 15.1856C25.2975 13.8731 27.2203 13.1231 30 13.1231C32.7797 13.1231 34.6988 13.8731 35.265 15.1856C35.7188 16.2309 37.5 22.934 37.5 26.2584C37.5 27.7678 36.0356 27.5062 35.5903 25.9162C35.1675 23.7132 34.8661 21.4886 34.6875 19.2525C34.6784 19.1294 34.6451 19.0093 34.5896 18.899C34.5341 18.7887 34.4574 18.6905 34.3639 18.6099C34.2704 18.5293 34.1619 18.4679 34.0447 18.4292C33.9274 18.3905 33.8037 18.3753 33.6806 18.3844C33.5575 18.3935 33.4374 18.4267 33.3271 18.4823C33.2169 18.5378 33.1186 18.6145 33.038 18.708C32.9574 18.8015 32.896 18.91 32.8573 19.0272C32.8186 19.1444 32.8034 19.2681 32.8125 19.3912C32.8228 19.5562 33.75 35.9128 33.75 37.5C33.75 37.7812 33.72 38.4375 33.4444 38.4375Z" fill="white"/>
<path d="M42.1874 8.43749C43.1502 8.40445 44.0607 7.9913 44.7196 7.28848C45.3785 6.58566 45.7321 5.65043 45.7031 4.68749C45.7345 4.2065 45.6669 3.72417 45.5044 3.27035C45.342 2.81654 45.0881 2.40088 44.7586 2.0491C44.4291 1.69733 44.0309 1.41691 43.5886 1.22521C43.1463 1.03351 42.6694 0.934601 42.1874 0.934601C41.7054 0.934601 41.2285 1.03351 40.7863 1.22521C40.344 1.41691 39.9458 1.69733 39.6163 2.0491C39.2867 2.40088 39.0329 2.81654 38.8704 3.27035C38.708 3.72417 38.6404 4.2065 38.6718 4.68749C38.6427 5.65043 38.9963 6.58566 39.6552 7.28848C40.3141 7.9913 41.2246 8.40445 42.1874 8.43749ZM42.1874 2.81249C42.6526 2.84617 43.0858 3.06193 43.3929 3.41295C43.7001 3.76397 43.8564 4.22193 43.8281 4.68749C43.8598 4.92155 43.8411 5.15969 43.7731 5.38592C43.7052 5.61214 43.5897 5.82122 43.4343 5.9991C43.2789 6.17698 43.0872 6.31956 42.8722 6.41724C42.6571 6.51493 42.4236 6.56547 42.1874 6.56547C41.9512 6.56547 41.7178 6.51493 41.5027 6.41724C41.2877 6.31956 41.096 6.17698 40.9406 5.9991C40.7852 5.82122 40.6697 5.61214 40.6017 5.38592C40.5338 5.15969 40.5151 4.92155 40.5468 4.68749C40.5184 4.22193 40.6748 3.76397 40.9819 3.41295C41.2891 3.06193 41.7222 2.84617 42.1874 2.81249Z" fill="white"/>
<path d="M17.8125 8.4375C18.7753 8.40446 19.6858 7.99132 20.3447 7.2885C21.0036 6.58568 21.3572 5.65044 21.3281 4.6875C21.3572 3.72456 21.0036 2.78932 20.3447 2.0865C19.6858 1.38368 18.7753 0.970537 17.8125 0.9375C16.8496 0.970537 15.9391 1.38368 15.2802 2.0865C14.6214 2.78932 14.2677 3.72456 14.2968 4.6875C14.2677 5.65044 14.6214 6.58568 15.2802 7.2885C15.9391 7.99132 16.8496 8.40446 17.8125 8.4375ZM17.8125 2.8125C18.2777 2.84619 18.7108 3.06194 19.018 3.41296C19.3251 3.76398 19.4814 4.22194 19.4531 4.6875C19.4814 5.15306 19.3251 5.61102 19.018 5.96204C18.7108 6.31306 18.2777 6.52881 17.8125 6.5625C17.3473 6.52881 16.9141 6.31306 16.607 5.96204C16.2998 5.61102 16.1435 5.15306 16.1718 4.6875C16.1435 4.22194 16.2998 3.76398 16.607 3.41296C16.9141 3.06194 17.3473 2.84619 17.8125 2.8125Z" fill="white"/>
<path d="M38.1451 12.3553C38.7751 11.6531 40.2488 11.25 42.1876 11.25C44.6129 11.25 46.2357 11.8631 46.5479 12.9553C48.5917 20.1 48.7501 21.6741 48.7501 21.9862C48.7501 23.1028 47.8857 23.0925 47.402 21.3647C47.0091 19.9584 46.4523 16.5525 46.4457 16.5178C46.4052 16.2819 46.2759 16.0705 46.0845 15.9268C45.8931 15.7831 45.6539 15.7181 45.4161 15.7451C45.1783 15.7721 44.9598 15.889 44.8054 16.0719C44.651 16.2548 44.5724 16.4898 44.5857 16.7287C44.8726 21.2231 45.4163 30.0216 45.4163 31.1456C45.4163 31.6341 45.316 31.8469 45.2495 31.875C44.5285 31.875 44.4704 31.875 44.0963 29.9062L43.1251 24.3928C43.0806 24.177 42.9631 23.9832 42.7923 23.844C42.6215 23.7048 42.4079 23.6288 42.1876 23.6288C41.9673 23.6288 41.7537 23.7048 41.5829 23.844C41.4121 23.9832 41.2945 24.177 41.2501 24.3928L40.337 29.6072L40.2798 29.9081C39.9048 31.8769 39.8476 31.8769 39.0948 31.8834C39.0143 31.7486 38.9721 31.5943 38.9729 31.4372C38.948 31.1898 38.8259 30.9624 38.6334 30.805C38.4409 30.6477 38.1937 30.5733 37.9463 30.5981C37.6989 30.623 37.4716 30.7451 37.3142 30.9376C37.1568 31.1301 37.0824 31.3773 37.1073 31.6247C37.3032 33.5934 38.701 33.7519 39.1266 33.7519C41.4591 33.7519 41.7657 32.1328 42.1266 30.2587L42.1876 29.9062L42.2541 30.2616C42.6104 32.1366 42.917 33.7547 45.2541 33.7547C46.2413 33.7547 47.296 33.0703 47.296 31.1503C47.296 30.4622 47.1188 27.3244 46.9276 24.1387C47.3954 24.4588 47.9553 24.6166 48.5213 24.5878C49.4963 24.5878 50.6345 23.9081 50.6345 21.9909C50.6345 20.9334 49.8695 17.7216 48.3413 12.3788C47.7798 10.44 45.5973 9.375 42.1876 9.375C40.4138 9.375 38.0298 9.675 36.7501 11.1037C36.5879 11.2894 36.5053 11.5315 36.5203 11.7776C36.5353 12.0237 36.6466 12.254 36.8302 12.4186C37.0138 12.5832 37.2548 12.6689 37.5011 12.657C37.7474 12.6452 37.9791 12.5368 38.146 12.3553H38.1451Z" fill="white"/>
<path d="M11.4881 24.5831C12.0542 24.6119 12.6141 24.4542 13.0819 24.1341C12.8944 27.3216 12.7134 30.4575 12.7134 31.1456C12.7134 33.0656 13.7681 33.75 14.7553 33.75C17.1159 33.75 17.3859 32.1506 17.8125 29.9062C18.2419 32.1656 18.5053 33.75 20.8744 33.75C21.2981 33.75 22.6978 33.5962 22.8938 31.6228C22.9186 31.3754 22.8442 31.1283 22.6868 30.9358C22.5295 30.7432 22.3021 30.6211 22.0547 30.5963C21.8073 30.5714 21.5601 30.6458 21.3676 30.8032C21.1751 30.9605 21.053 31.1879 21.0281 31.4353C20.9934 31.7831 20.9081 31.8928 20.8744 31.8731C20.1534 31.8731 20.0953 31.8731 19.7212 29.9044L18.75 24.3928C18.7055 24.177 18.588 23.9832 18.4172 23.844C18.2464 23.7048 18.0328 23.6288 17.8125 23.6288C17.5922 23.6288 17.3786 23.7048 17.2078 23.844C17.037 23.9832 16.9195 24.177 16.875 24.3928L15.9619 29.6072C15.4809 31.8356 15.5869 31.8741 14.7197 31.8834C14.6056 31.6553 14.5588 31.3994 14.5847 31.1456C14.5847 30.0206 15.1284 21.2231 15.4153 16.7287C15.4286 16.4898 15.35 16.2548 15.1956 16.0719C15.0412 15.889 14.8227 15.7721 14.5849 15.7451C14.3471 15.7181 14.108 15.7831 13.9165 15.9268C13.7251 16.0705 13.5959 16.2819 13.5553 16.5178C13.5487 16.5525 12.9928 19.9603 12.5991 21.3647C12.1059 23.1225 11.25 23.0916 11.25 21.9862C11.25 21.6741 11.4084 20.1 13.4709 12.8925C13.7644 11.8631 15.3872 11.25 17.8125 11.25C19.7513 11.25 21.225 11.6531 21.855 12.3553C21.936 12.4512 22.0353 12.5299 22.1472 12.5866C22.2592 12.6434 22.3813 12.6771 22.5065 12.6858C22.6317 12.6945 22.7574 12.6779 22.8761 12.6372C22.9947 12.5964 23.104 12.5322 23.1974 12.4484C23.2908 12.3646 23.3665 12.2629 23.4198 12.1493C23.4732 12.0357 23.5032 11.9126 23.5081 11.7872C23.5131 11.6618 23.4927 11.5367 23.4484 11.4193C23.404 11.3019 23.3366 11.1946 23.25 11.1037C21.9703 9.675 19.5863 9.375 17.8125 9.375C14.4028 9.375 12.2203 10.44 11.6484 12.4406C10.14 17.7188 9.375 20.9288 9.375 21.9862C9.375 23.9062 10.5131 24.5831 11.4881 24.5831Z" fill="white"/>
</g>
<defs>
<clipPath id="clip0_1333_1949">
<rect width="60" height="60" fill="white"/>
</clipPath>
</defs>
</svg>
