<svg width="60" height="60" viewBox="0 0 60 60" fill="none" xmlns="http://www.w3.org/2000/svg">
<g clip-path="url(#clip0_1333_1939)">
<path d="M28.4112 23.3567L24.244 27.5239C23.9005 27.8675 23.9005 28.4244 24.244 28.7679C24.4158 28.9396 24.6409 29.0254 24.866 29.0254C25.091 29.0254 25.3162 28.9396 25.488 28.7679L29.6553 24.6006C30.3696 23.8862 31.3193 23.4928 32.3297 23.4928H40.8711C41.8813 23.4928 42.8311 23.8862 43.5455 24.6006L46.3757 27.4308C46.5407 27.5957 46.7643 27.6883 46.9977 27.6883H59.1208C59.6067 27.6883 60.0003 27.2947 60.0003 26.8088C60.0003 26.3229 59.6067 25.9292 59.1208 25.9292H47.3618L44.7893 23.3566C43.7426 22.31 42.3511 21.7336 40.871 21.7336H32.3296C30.8495 21.7337 29.4579 22.3101 28.4112 23.3567Z" fill="white"/>
<path d="M22.822 31.4338C23.1655 31.0902 23.1655 30.5333 22.822 30.1898C22.4784 29.8465 21.9216 29.8465 21.5781 30.1898L20.3833 31.3846C18.7323 33.0358 18.7323 35.7224 20.3834 37.3736C21.2089 38.1991 22.2933 38.612 23.3778 38.612C24.4622 38.612 25.5465 38.1991 26.3721 37.3736L29.2908 34.4549C30.4191 35.3164 31.7911 35.7827 33.235 35.7827H35.3692C37.1099 35.7827 38.7461 35.105 39.9767 33.8744L40.7855 33.0655L44.3968 36.6769C44.5686 36.8486 44.7936 36.9344 45.0188 36.9344C45.2438 36.9344 45.469 36.8486 45.6408 36.6769C45.9843 36.3333 45.9843 35.7765 45.6408 35.433L42.0296 31.8216L43.1253 30.7259C43.4688 30.3823 43.4688 29.8255 43.1253 29.482C42.7817 29.1386 42.2248 29.1386 41.8813 29.482L40.1643 31.1991C40.1641 31.1993 40.1638 31.1995 40.1637 31.1997C40.1636 31.1999 40.1634 31.2002 40.1631 31.2003L38.7328 32.6307C37.8346 33.529 36.6401 34.0238 35.3693 34.0238H33.2351C31.9644 34.0238 30.7699 33.529 29.8715 32.6306C29.5279 32.2872 28.9711 32.2872 28.6276 32.6306L25.1283 36.1298C24.1632 37.0951 22.5924 37.095 21.6273 36.1299C20.6621 35.1647 20.6621 33.594 21.6273 32.6288L22.822 31.4338Z" fill="white"/>
<path d="M59.1204 42.8574H51.1659C51.1767 42.7418 51.1825 42.625 51.1825 42.5073C51.1825 41.5189 50.7976 40.5896 50.0988 39.8907L48.2915 38.0834C47.9479 37.74 47.391 37.74 47.0475 38.0834C46.704 38.427 46.704 38.9838 47.0475 39.3273L48.8549 41.1346C49.6118 41.8915 49.6118 43.123 48.855 43.8799C48.0981 44.6369 46.8663 44.6368 46.1097 43.8799L41.1534 38.9236C40.8098 38.5803 40.253 38.5803 39.9095 38.9236C39.566 39.2673 39.566 39.8241 39.9095 40.1676L45.5754 45.8336C46.3323 46.5905 46.3323 47.822 45.5754 48.5789C44.8185 49.336 43.5867 49.3358 42.8301 48.5789L35.6206 41.3694C35.277 41.026 34.7201 41.026 34.3767 41.3694C34.0331 41.713 34.0331 42.2699 34.3767 42.6134L39.7025 47.9392C40.4571 48.6963 40.4564 49.9259 39.7004 50.6821C38.9437 51.4391 37.712 51.4393 36.9551 50.6821L31.6602 45.3873C31.3166 45.0439 30.7598 45.0439 30.4163 45.3873C30.0728 45.7309 30.0728 46.2877 30.4163 46.6312L34.9446 51.1595C35.3113 51.5262 35.5133 52.0137 35.5133 52.5321C35.5133 53.0507 35.3113 53.5382 34.9446 53.905C34.578 54.2716 34.0906 54.4735 33.572 54.4735C33.0536 54.4735 32.566 54.2716 32.1994 53.9048L30.7866 52.492C30.8094 52.325 30.8218 52.1555 30.8218 51.984C30.8218 50.9956 30.4369 50.0663 29.7381 49.3673C29.0391 48.6685 28.1098 48.2836 27.1213 48.2836C27.0199 48.2836 26.9194 48.2887 26.8194 48.2967C26.8274 48.1967 26.8326 48.0962 26.8326 47.9948C26.8326 47.0062 26.4477 46.077 25.7488 45.3782C25.05 44.6793 24.1207 44.2944 23.1322 44.2944C23.0302 44.2944 22.9289 44.2994 22.8283 44.3076C22.9132 43.262 22.5575 42.1869 21.7595 41.3889C21.0605 40.69 20.1312 40.3051 19.1427 40.3051C19.0413 40.3051 18.9408 40.3102 18.8409 40.3183C18.8488 40.2182 18.854 40.1177 18.854 40.0163C18.854 39.0278 18.4691 38.0985 17.7702 37.3995C16.3275 35.9568 13.9799 35.9567 12.537 37.3995L9.70218 40.2344C8.56438 41.3722 8.32478 43.0725 8.98164 44.4482H0.879564C0.393693 44.4482 0 44.8419 0 45.3278C0 45.8137 0.393693 46.2074 0.879564 46.2074H10.7568C11.2397 46.4324 11.7699 46.5515 12.3186 46.5515C12.42 46.5515 12.5205 46.5464 12.6205 46.5383C12.6125 46.6384 12.6073 46.7389 12.6073 46.8403C12.6073 47.8288 12.9922 48.7581 13.6911 49.4569C14.4125 50.1783 15.3599 50.539 16.3078 50.539C16.4086 50.539 16.5094 50.5341 16.6099 50.5259C16.6018 50.6264 16.5967 50.7276 16.5967 50.8297C16.5967 51.8181 16.9816 52.7473 17.6804 53.4463C18.3794 54.1451 19.3087 54.53 20.2971 54.53C20.3991 54.53 20.5003 54.525 20.6009 54.5168C20.516 55.5624 20.8717 56.6375 21.6698 57.4355C22.3862 58.152 23.3352 58.5112 24.2851 58.5111C25.2125 58.5111 26.1408 58.1684 26.8532 57.4814C27.2028 57.1442 27.213 56.5874 26.8757 56.2378C26.5384 55.8881 25.9815 55.8781 25.6321 56.2153C24.8756 56.9449 23.6561 56.9342 22.9137 56.1918C22.1568 55.4348 22.1568 54.2033 22.9137 53.4464L25.7485 50.6116C26.5054 49.8546 27.7371 49.8546 28.4938 50.6116C29.2507 51.3685 29.2507 52.6 28.4938 53.3569L28.2885 53.5622C27.945 53.9058 27.945 54.4626 28.2885 54.8061C28.6322 55.1495 29.189 55.1495 29.5325 54.8061L29.7377 54.6009C29.8505 54.4881 29.9543 54.3686 30.0505 54.2444L30.9551 55.149C31.6541 55.8479 32.5834 56.2328 33.5718 56.2328C34.5603 56.2328 35.4896 55.8479 36.1884 55.149C36.8109 54.5264 37.1835 53.7208 37.2576 52.8536C37.6002 52.9566 37.9598 53.01 38.3275 53.01C39.316 53.01 40.2453 52.6251 40.9443 51.9263C41.4454 51.4252 41.784 50.8051 41.9362 50.1303C42.6007 50.6461 43.4014 50.9051 44.2029 50.9051C45.1505 50.9051 46.0981 50.5444 46.8196 49.823C47.8004 48.8421 48.1136 47.4431 47.7607 46.1944C48.6133 46.1306 49.4483 45.7744 50.0989 45.1239C50.2568 44.966 50.3977 44.7958 50.5228 44.6164H59.1207C59.6065 44.6164 60.0002 44.2227 60.0002 43.7368C60.0002 43.251 59.6063 42.8574 59.1204 42.8574ZM10.9459 44.2242C10.189 43.4672 10.189 42.2356 10.9459 41.4788L13.7807 38.6441C14.1591 38.2655 14.6562 38.0763 15.1532 38.0763C15.6504 38.0763 16.1476 38.2655 16.526 38.6441C17.2829 39.4009 17.2829 40.6325 16.526 41.3893L13.6912 44.2241C12.9343 44.9809 11.7028 44.9813 10.9459 44.2242ZM14.9351 48.2132C14.5685 47.8466 14.3666 47.3592 14.3666 46.8407C14.3666 46.3222 14.5685 45.8347 14.9352 45.4681L17.77 42.6333C18.1486 42.2547 18.6455 42.0656 19.1427 42.0656C19.6397 42.0656 20.137 42.2547 20.5153 42.6332C21.272 43.3899 21.2722 44.621 20.5161 45.3778C20.5159 45.378 20.5155 45.3782 20.5153 45.3786L17.6805 48.2132C16.9236 48.9704 15.692 48.9701 14.9351 48.2132ZM21.6696 52.2027C21.303 52.5693 20.8156 52.7713 20.2971 52.7713C19.7786 52.7713 19.2911 52.5693 18.9245 52.2026C18.5577 51.836 18.3558 51.3485 18.3558 50.83C18.3558 50.3114 18.5577 49.824 18.9245 49.4574L21.7592 46.6226C21.7592 46.6225 21.7592 46.6225 21.7592 46.6225C22.1258 46.2559 22.6132 46.054 23.1318 46.054C23.6504 46.054 24.1378 46.2559 24.5045 46.6226C24.8711 46.9892 25.0731 47.4766 25.0731 47.9952C25.0731 48.5137 24.8711 49.0012 24.5044 49.3678L21.6696 52.2027Z" fill="white"/>
<path d="M0.965746 28.0847H12.2108C12.4201 28.0847 12.6227 28.01 12.7818 27.8742L15.0175 25.9659C15.6769 25.4033 16.517 25.0936 17.3835 25.0936H24.1147C24.6006 25.0936 24.9943 24.6999 24.9943 24.214C24.9943 23.7282 24.6006 23.3345 24.1147 23.3345H17.3835C16.0988 23.3345 14.8531 23.7938 13.8756 24.6278L11.8864 26.3257H0.965746C0.479875 26.3257 0.0861816 26.7194 0.0861816 27.2053C0.0861816 27.6911 0.479992 28.0847 0.965746 28.0847Z" fill="white"/>
<path d="M26.1508 14.417L25.3718 16.8464C25.2222 17.3135 25.3613 17.8272 25.7261 18.1549C26.0908 18.4827 26.6163 18.566 27.0653 18.3675L29.8221 17.1452C29.9504 17.0884 30.0975 17.0884 30.2255 17.1452L32.9825 18.3675C33.1445 18.4392 33.3164 18.4742 33.4872 18.4742C33.7895 18.4742 34.0884 18.3644 34.3216 18.1549C34.6864 17.8272 34.8256 17.3135 34.6759 16.8464C34.6759 16.8464 34.6757 16.8464 34.6757 16.8463L33.8969 14.417L35.6134 12.3101C35.9916 11.8459 36.0667 11.2216 35.8099 10.6808C35.553 10.1401 35.0213 9.80413 34.4228 9.80413H32.6425L31.3288 7.68743C31.0468 7.23299 30.559 6.96173 30.024 6.96173C29.489 6.96173 29.0013 7.23299 28.7192 7.68743L27.4053 9.80425H25.625C25.0264 9.80425 24.4948 10.1401 24.2379 10.6809C23.9811 11.2216 24.0562 11.846 24.4344 12.3102L26.1508 14.417ZM27.5295 11.5634C28.0645 11.5634 28.5523 11.292 28.8343 10.8376L30.024 8.92105L31.2137 10.8374C31.4957 11.292 31.9836 11.5634 32.5186 11.5634H33.953L32.4568 13.3999C32.1273 13.8044 32.0258 14.3422 32.1852 14.8389L32.6525 16.2968L30.9386 15.537C30.3575 15.2794 29.6906 15.2794 29.1093 15.537L27.3955 16.2968L27.8629 14.8389C28.0221 14.3423 27.9206 13.8045 27.5911 13.3998L26.0951 11.5634H27.5295Z" fill="white"/>
<path d="M30.0241 4.46773C30.51 4.46773 30.9037 4.07404 30.9037 3.58817V2.36815C30.9037 1.88228 30.51 1.48859 30.0241 1.48859C29.5382 1.48859 29.1445 1.88228 29.1445 2.36815V3.58805C29.1445 4.07392 29.5382 4.46773 30.0241 4.46773Z" fill="white"/>
<path d="M22.4565 7.13564C22.6283 7.30733 22.8535 7.39318 23.0785 7.39318C23.3036 7.39318 23.5287 7.30733 23.7005 7.13564C24.044 6.79202 24.044 6.2352 23.7005 5.8917L22.838 5.02914C22.4944 4.68576 21.9375 4.68576 21.5941 5.02914C21.2506 5.37276 21.2506 5.92958 21.5941 6.27308L22.4565 7.13564Z" fill="white"/>
<path d="M36.9694 7.39318C37.1944 7.39318 37.4196 7.30733 37.5914 7.13564L38.454 6.27308C38.7975 5.92947 38.7975 5.37264 38.454 5.02914C38.1104 4.68576 37.5535 4.68576 37.21 5.02914L36.3475 5.8917C36.004 6.23532 36.004 6.79214 36.3475 7.13564C36.5192 7.30733 36.7443 7.39318 36.9694 7.39318Z" fill="white"/>
</g>
<defs>
<clipPath id="clip0_1333_1939">
<rect width="60" height="60" fill="white"/>
</clipPath>
</defs>
</svg>
