<svg width="60" height="60" viewBox="0 0 60 60" fill="none" xmlns="http://www.w3.org/2000/svg">
<path d="M29.7285 27.2482L16.073 31.9993C15.7258 32.1165 15.4936 32.441 15.4898 32.8064V37.9636C15.4777 39.1254 17.2273 39.1254 17.2122 37.9636V33.4168L30.0076 28.9653L42.8122 33.4168V37.9636C42.7608 39.1572 44.5807 39.1572 44.5262 37.9636V32.8064C44.5262 32.444 44.297 32.1165 43.9498 31.9993L30.2958 27.2482C30.0591 27.1658 29.96 27.1688 29.7285 27.2482Z" fill="white"/>
<path fill-rule="evenodd" clip-rule="evenodd" d="M28.0289 1.9432C32.6188 0.856237 37.2049 3.65345 38.304 8.19193C39.3985 12.7304 36.5832 17.2727 31.9925 18.3558C27.3996 19.439 22.8134 16.6456 21.7174 12.1071C20.6191 7.56865 23.4359 3.0279 28.0289 1.9432ZM27.6272 0.277581C22.1402 1.57332 18.7318 7.05353 20.048 12.502C21.3626 17.9504 26.9056 21.3187 32.3941 20.023C37.8827 18.7272 41.2865 13.2463 39.9704 7.79784C38.6542 2.35015 33.1112 -1.01891 27.6272 0.277581Z" fill="white"/>
<path d="M21.3606 24.2181H38.659C40.9593 24.2181 42.4456 24.6205 43.6657 25.51C44.8873 26.4003 45.9085 27.87 47.0265 30.1786L52.2427 40.9499C52.9666 42.4438 53.1322 43.5815 52.8955 44.381C52.6587 45.1851 52.0256 45.8439 50.6187 46.3863L45.112 48.5262C44.2066 48.8802 43.5281 48.7871 42.9608 48.483C42.398 48.1797 41.9487 47.6162 41.7127 46.9422C41.2399 45.592 41.5357 43.9801 43.3821 43.1881C45.022 42.4832 47.8774 41.3251 47.8774 41.3251C49.0522 40.9507 48.3381 39.1897 47.2345 39.7374C47.2345 39.7374 44.3828 40.8955 42.7051 41.6163C40.0887 42.7396 39.3678 45.446 40.0932 47.5103C40.1878 47.7856 40.3133 48.0504 40.4555 48.3022C38.265 52.4897 34.6009 55.6016 30.0072 58.1076C25.4143 55.6016 21.7532 52.4897 19.5589 48.3022C19.7049 48.0504 19.8266 47.7856 19.925 47.5103C20.6504 45.446 19.9295 42.7396 17.3085 41.6163C15.6346 40.8955 12.7822 39.7374 12.7822 39.7374C11.6755 39.1897 10.9622 40.9507 12.1407 41.3251C12.1407 41.3251 14.9924 42.4839 16.6346 43.1881C18.4787 43.9801 18.7782 45.592 18.3055 46.9422C18.0687 47.6162 17.6156 48.1797 17.0529 48.483C16.4901 48.7871 15.8078 48.8802 14.9016 48.5262L9.39873 46.387C7.99255 45.8439 7.35717 45.1851 7.12041 44.3818C6.88138 43.5815 7.04931 42.4438 7.77017 40.9507L12.994 30.1794C14.1097 27.8708 15.1301 26.4011 16.3509 25.5108C17.574 24.6205 19.0589 24.2181 21.3606 24.2181ZM21.3606 22.5086C18.8546 22.5086 16.9167 22.9692 15.3403 24.1205C13.764 25.2702 12.6173 27.0153 11.4478 29.4305L6.23238 40.2018C5.40789 41.903 5.05767 43.4673 5.47143 44.8704C5.88973 46.2728 7.07427 47.328 8.78074 47.9906L14.2836 50.1297C15.5922 50.6381 16.8691 50.5314 17.8645 49.9951C18.0347 49.9043 18.1958 49.7947 18.3494 49.6797C20.8433 54.0918 24.8023 57.3588 29.6055 59.8996C29.8582 60.0335 30.1607 60.0335 30.4096 59.8996C35.2128 57.3588 39.1749 54.0918 41.6658 49.6797C41.8224 49.7947 41.9804 49.9051 42.1537 49.9951C43.1468 50.5306 44.4274 50.6381 45.7345 50.1297L51.242 47.9906C52.9484 47.328 54.1299 46.272 54.5437 44.8704C54.9575 43.468 54.6148 41.903 53.7873 40.2018L48.5711 29.4305C47.4009 27.016 46.2519 25.2702 44.6755 24.1205C43.1037 22.97 41.165 22.5086 38.6598 22.5086H21.3606Z" fill="white"/>
<path fill-rule="evenodd" clip-rule="evenodd" d="M37.2219 39.9061L28.3454 48.8612C28.2864 48.9202 28.2153 48.9202 28.1563 48.8612L22.8024 43.5066L24.4643 41.8047L27.651 44.9997C27.9861 45.331 28.53 45.331 28.8651 44.9997L35.4512 38.4091L37.2219 39.9061ZM35.52 36.6013C34.9761 36.6595 34.5389 36.9001 34.2462 37.192L28.263 43.176L25.6821 40.5989C24.9771 39.8856 23.7835 39.8856 23.0778 40.5989L21.5854 42.1155C20.8758 42.8288 20.8758 43.9998 21.5854 44.7131L26.9514 50.0783C27.7698 50.8975 28.7357 50.9058 29.5519 50.0859L38.4398 41.1156C39.1727 40.375 39.0222 39.1534 38.4307 38.5271L36.9625 37.0733C36.5434 36.6641 35.9928 36.5498 35.52 36.6013Z" fill="white"/>
</svg>
