<svg width="32" height="32" viewBox="0 0 32 32" fill="none" xmlns="http://www.w3.org/2000/svg">
<path d="M22.4929 12.7197C22.3279 12.1574 21.8442 11.7142 21.2309 11.5628C20.1105 11.2817 15.6286 11.2817 15.6286 11.2817C15.6286 11.2817 11.147 11.2817 10.0265 11.5521C9.425 11.7033 8.92958 12.1575 8.76458 12.7197C8.46973 13.7467 8.46973 15.8765 8.46973 15.8765C8.46973 15.8765 8.46973 18.0171 8.76458 19.0333C8.92975 19.5955 9.4132 20.0388 10.0266 20.1902C11.1588 20.4713 15.6288 20.4713 15.6288 20.4713C15.6288 20.4713 20.1105 20.4713 21.2309 20.2009C21.8443 20.0496 22.3279 19.6064 22.493 19.0442C22.7878 18.0171 22.7878 15.8873 22.7878 15.8873C22.7878 15.8873 22.7996 13.7467 22.4929 12.7197ZM14.2017 17.8441V13.9089L17.9286 15.8765L14.2017 17.8441Z" fill="white"/>
<circle cx="16" cy="16" r="15.75" stroke="white" stroke-opacity="0.5" stroke-width="0.5"/>
</svg>
