<svg width="14" height="14" viewBox="0 0 14 14" fill="none" xmlns="http://www.w3.org/2000/svg">
<g clip-path="url(#clip0_373_290)">
<path d="M6.99968 0.583252C5.73058 0.583252 4.48998 0.959583 3.43477 1.66466C2.37955 2.36973 1.55711 3.37187 1.07145 4.54437C0.585788 5.71686 0.458717 7.00704 0.706305 8.25175C0.953894 9.49646 1.56502 10.6398 2.46241 11.5372C3.3598 12.4346 4.50314 13.0457 5.74785 13.2933C6.99256 13.5409 8.28274 13.4138 9.45523 12.9281C10.6277 12.4425 11.6299 11.62 12.3349 10.5648C13.04 9.50961 13.4163 8.26902 13.4163 6.99992C13.4143 5.29873 12.7377 3.66779 11.5347 2.46487C10.3318 1.26194 8.70087 0.585259 6.99968 0.583252ZM9.16209 9.16234C9.0527 9.27169 8.90436 9.33313 8.74968 9.33313C8.595 9.33313 8.44665 9.27169 8.33726 9.16234L6.58726 7.41234C6.47786 7.30296 6.41638 7.15462 6.41634 6.99992V3.49992C6.41634 3.34521 6.4778 3.19684 6.5872 3.08744C6.69659 2.97804 6.84497 2.91659 6.99968 2.91659C7.15439 2.91659 7.30276 2.97804 7.41216 3.08744C7.52155 3.19684 7.58301 3.34521 7.58301 3.49992V6.75842L9.16209 8.3375C9.27145 8.44689 9.33289 8.59524 9.33289 8.74992C9.33289 8.9046 9.27145 9.05294 9.16209 9.16234Z" fill="#A6A6A6"/>
</g>
<defs>
<clipPath id="clip0_373_290">
<rect width="14" height="14" fill="white"/>
</clipPath>
</defs>
</svg>
