<svg width="12" height="12" viewBox="0 0 12 12" fill="none" xmlns="http://www.w3.org/2000/svg">
<g clip-path="url(#clip0_373_318)">
<path d="M3.02645 7.65347C4.01651 8.83697 5.20833 9.76879 6.56862 10.4281C7.08653 10.6736 7.77916 10.9648 8.55083 11.0147C8.59867 11.0168 8.64443 11.0188 8.69227 11.0188C9.21018 11.0188 9.62617 10.84 9.9652 10.4718C9.96728 10.4697 9.97144 10.4656 9.97352 10.4614C10.0942 10.3158 10.2314 10.1848 10.375 10.0454C10.4727 9.95183 10.5725 9.85407 10.6682 9.75423C11.1113 9.29248 11.1113 8.70593 10.6641 8.25874L9.41401 7.00868C9.20185 6.78821 8.9481 6.67173 8.68187 6.67173C8.41563 6.67173 8.15979 6.78821 7.9414 7.0066L7.19677 7.75123C7.12813 7.71171 7.05742 7.67635 6.99086 7.64307C6.90766 7.60147 6.8307 7.56195 6.76206 7.51827C6.08399 7.08772 5.46833 6.52613 4.8797 5.80439C4.58226 5.42791 4.38259 5.11176 4.24323 4.78937C4.43875 4.61257 4.62178 4.42745 4.79858 4.2465C4.86098 4.18202 4.92546 4.11754 4.98993 4.05306C5.21457 3.82842 5.33521 3.56843 5.33521 3.30427C5.33521 3.04012 5.21665 2.78012 4.98993 2.55549L4.37011 1.93566C4.29731 1.86286 4.22867 1.79214 4.15795 1.71934C4.02067 1.57791 3.87716 1.43231 3.73572 1.30127C3.52148 1.09119 3.26981 0.980957 3.00357 0.980957C2.73942 0.980957 2.48566 1.09119 2.26311 1.30335L1.4852 2.08126C1.20233 2.36413 1.04217 2.70732 1.00889 3.1046C0.96937 3.60171 1.06089 4.13002 1.298 4.76857C1.662 5.75655 2.21111 6.67381 3.02645 7.65347ZM1.5164 3.14828C1.54136 2.87164 1.64744 2.64077 1.84711 2.44109L2.62086 1.66734C2.7415 1.55087 2.87461 1.49055 3.00357 1.49055C3.13045 1.49055 3.25941 1.55087 3.37796 1.6715C3.51732 1.80046 3.64836 1.93566 3.7898 2.07918C3.86052 2.15198 3.93331 2.22477 4.00611 2.29965L4.62594 2.91948C4.7549 3.04844 4.82146 3.17948 4.82146 3.30843C4.82146 3.43739 4.7549 3.56843 4.62594 3.69739C4.56146 3.76186 4.49698 3.82842 4.43251 3.8929C4.23907 4.08842 4.05811 4.27354 3.85844 4.45033C3.85428 4.45449 3.8522 4.45657 3.84804 4.46073C3.6754 4.63337 3.70244 4.79769 3.74404 4.92248C3.74612 4.92872 3.7482 4.93288 3.75028 4.93912C3.91044 5.32392 4.13299 5.68999 4.48034 6.12678C5.10433 6.89637 5.7616 7.49331 6.48543 7.95299C6.57486 8.01123 6.67054 8.05698 6.75998 8.10274C6.84318 8.14434 6.92014 8.18386 6.98878 8.22754C6.9971 8.2317 7.00334 8.23586 7.01166 8.24002C7.0803 8.27538 7.14685 8.29202 7.21341 8.29202C7.37981 8.29202 7.48797 8.18594 7.52333 8.15058L8.30123 7.37268C8.42187 7.25204 8.55291 7.18756 8.68187 7.18756C8.83994 7.18756 8.9689 7.28532 9.05002 7.37268L10.3042 8.62481C10.5538 8.87441 10.5518 9.1448 10.298 9.40896C10.2106 9.50256 10.1191 9.592 10.0214 9.68559C9.87576 9.82703 9.72393 9.97263 9.58665 10.1369C9.34745 10.3949 9.0625 10.5155 8.69434 10.5155C8.65899 10.5155 8.62155 10.5134 8.58619 10.5113C7.90396 10.4677 7.26957 10.2014 6.79326 9.97471C5.49952 9.34864 4.36387 8.4605 3.42164 7.33316C2.64582 6.39925 2.12375 5.52983 1.77848 4.59801C1.56424 4.02602 1.48312 3.56635 1.5164 3.14828Z" fill="white" stroke="white" stroke-width="0.3"/>
</g>
<defs>
<clipPath id="clip0_373_318">
<rect width="12" height="12" fill="white"/>
</clipPath>
</defs>
</svg>
