<svg width="14" height="14" viewBox="0 0 14 14" fill="none" xmlns="http://www.w3.org/2000/svg">
<g clip-path="url(#clip0_1333_4011)">
<path d="M12.7838 8.83748L10.8938 6.92998C10.885 6.919 10.8736 6.91043 10.8606 6.90508C10.8476 6.89972 10.8334 6.89775 10.8195 6.89936C10.8053 6.89989 10.7915 6.90326 10.7787 6.90928C10.7659 6.91529 10.7545 6.92382 10.7451 6.93436L9.48509 8.26873C9.40363 8.35537 9.30536 8.4245 9.19629 8.47189C9.08722 8.51928 8.96963 8.54394 8.85071 8.54436C8.73179 8.54394 8.61421 8.51928 8.50514 8.47189C8.39606 8.4245 8.2978 8.35537 8.21634 8.26873L5.51259 5.38561C5.49334 5.36839 5.46842 5.35887 5.44259 5.35887C5.41676 5.35887 5.39184 5.36839 5.37259 5.38561L1.16384 8.66686L0.621338 7.96248L4.81259 4.68123C5.00496 4.53167 5.24633 4.45951 5.48922 4.47894C5.73211 4.49837 5.95894 4.60799 6.12509 4.78623L8.82446 7.66936L10.0757 6.33498C10.1652 6.23847 10.2735 6.16116 10.3938 6.10777C10.5141 6.05437 10.6441 6.02599 10.7757 6.02436C10.9074 6.02094 11.0383 6.04483 11.1603 6.09453C11.2823 6.14422 11.3927 6.21865 11.4845 6.31311L13.3745 8.22061L12.7838 8.83748Z" fill="white"/>
<path d="M11.8475 13.5625H2.1525C1.69765 13.5625 1.26144 13.3818 0.939812 13.0602C0.618187 12.7386 0.4375 12.3023 0.4375 11.8475V2.1525C0.4375 1.69765 0.618187 1.26144 0.939812 0.939812C1.26144 0.618187 1.69765 0.4375 2.1525 0.4375H11.8475C12.3023 0.4375 12.7386 0.618187 13.0602 0.939812C13.3818 1.26144 13.5625 1.69765 13.5625 2.1525V11.8475C13.5625 12.3023 13.3818 12.7386 13.0602 13.0602C12.7386 13.3818 12.3023 13.5625 11.8475 13.5625ZM2.1525 1.3125C1.92972 1.3125 1.71606 1.401 1.55853 1.55853C1.401 1.71606 1.3125 1.92972 1.3125 2.1525V11.8475C1.3125 11.9578 1.33423 12.067 1.37644 12.169C1.41866 12.2709 1.48053 12.3635 1.55853 12.4415C1.63653 12.5195 1.72913 12.5813 1.83105 12.6236C1.93296 12.6658 2.04219 12.6875 2.1525 12.6875H11.8475C11.9578 12.6875 12.067 12.6658 12.169 12.6236C12.2709 12.5813 12.3635 12.5195 12.4415 12.4415C12.5195 12.3635 12.5813 12.2709 12.6236 12.169C12.6658 12.067 12.6875 11.9578 12.6875 11.8475V2.1525C12.6875 2.04219 12.6658 1.93296 12.6236 1.83105C12.5813 1.72913 12.5195 1.63653 12.4415 1.55853C12.3635 1.48053 12.2709 1.41866 12.169 1.37644C12.067 1.33423 11.9578 1.3125 11.8475 1.3125H2.1525Z" fill="white"/>
<path d="M8.89429 5.1756C9.37754 5.1756 9.76929 4.78385 9.76929 4.3006C9.76929 3.81735 9.37754 3.4256 8.89429 3.4256C8.41104 3.4256 8.01929 3.81735 8.01929 4.3006C8.01929 4.78385 8.41104 5.1756 8.89429 5.1756Z" fill="white"/>
<path d="M0.875 8.53124L5.04437 5.17562L5.81437 5.08374L8.33875 7.77874C8.33875 7.77874 8.77625 8.37812 9.14812 7.96687L10.4038 6.63249C10.4038 6.63249 10.6531 6.08562 11.1869 6.63249C11.7206 7.17937 13.125 8.96874 13.125 8.96874L13.0944 12.1319C13.0944 12.1319 12.9631 13.125 11.6769 13.125C10.3906 13.125 2.05187 12.9894 2.05187 12.9894C2.05187 12.9894 0.875 13.2781 0.875 11.8475C0.875 10.4169 0.875 8.53124 0.875 8.53124Z" fill="white"/>
</g>
<defs>
<clipPath id="clip0_1333_4011">
<rect width="14" height="14" fill="white"/>
</clipPath>
</defs>
</svg>
