<svg width="85" height="72" viewBox="0 0 85 72" fill="none" xmlns="http://www.w3.org/2000/svg">
<g clip-path="url(#clip0_807_118)">
<path d="M4.9686 71.7575L3.50496 69.864L2.07459 71.7575H0.810547L2.80641 69.1664L0.810547 66.5754H2.10786L3.57149 68.5021L5.00186 66.5754H6.26591L4.27005 69.1997L6.26591 71.7575H4.9686Z" fill="black"/>
<path d="M10.3248 66.5754H11.356V69.5651C11.356 71.226 10.6574 71.8571 9.09401 71.8571C7.56385 71.8571 6.83203 71.226 6.83203 69.5651V66.5754H7.86323V69.5983C7.86323 70.5616 8.22914 70.9602 9.09401 70.9602C9.95889 70.9602 10.3248 70.5948 10.3248 69.5983V66.5754Z" fill="black"/>
<path d="M16.0125 71.7575L15.58 70.5948H13.4179L12.9854 71.7575H11.8877L13.9501 66.5754H15.0811L17.1435 71.7575H16.0125ZM14.4823 67.738L13.7172 69.7312H15.2474L14.4823 67.738Z" fill="black"/>
<path d="M21.5009 71.7575L18.8398 68.4356V71.7575H17.8086V66.5754H18.6402L21.3014 69.9969V66.5754H22.3326V71.7575H21.5009Z" fill="black"/>
<path d="M30.1824 71.1928C30.1824 71.1928 29.384 71.8572 27.8871 71.8572C25.8247 71.8572 25.0264 70.5949 25.0264 69.1332C25.0264 67.5387 26.0243 66.509 27.8871 66.509C29.2842 66.509 29.883 67.0073 29.883 67.0073L29.4838 67.9042C29.4838 67.9042 29.0181 67.4391 27.8871 67.4391C26.8226 67.4391 26.0908 68.1035 26.0908 69.1665C26.0908 70.1962 26.6563 70.9935 27.9204 70.9935C29.0846 70.9935 29.883 70.3956 29.883 70.3956L30.1824 71.1928Z" fill="black"/>
<path d="M34.5409 71.7575L34.1084 70.5948H31.913L31.4805 71.7575H30.3828L32.4452 66.5754H33.5762L35.6386 71.7575H34.5409ZM33.0107 67.738L32.2456 69.7312H33.7758L33.0107 67.738Z" fill="black"/>
<path d="M39.6305 66.5754H40.6617V69.5651C40.6617 71.226 39.9631 71.8571 38.3997 71.8571C36.8695 71.8571 36.1377 71.226 36.1377 69.5651V66.5754H37.1689V69.5983C37.1689 70.5616 37.5348 70.9602 38.3997 70.9602C39.2646 70.9602 39.6305 70.5948 39.6305 69.5983V66.5754Z" fill="black"/>
<path d="M47.1482 71.7575V69.6979H44.6201V71.7575H43.5889V66.5754H44.6201V68.7678H47.1482V66.5754H48.1794V71.7575H47.1482Z" fill="black"/>
<path d="M51.971 71.8572C50.0084 71.8572 49.1436 70.6281 49.1436 69.1665C49.1436 67.572 50.208 66.509 51.971 66.509C53.734 66.509 54.7985 67.6052 54.7985 69.1665C54.7985 70.6281 53.9004 71.8572 51.971 71.8572ZM51.971 67.4059C50.84 67.4059 50.1747 68.1035 50.1747 69.1665C50.1747 70.1298 50.707 70.9603 51.971 70.9603C53.2018 70.9603 53.7673 70.163 53.7673 69.1665C53.734 68.1035 53.0688 67.4059 51.971 67.4059Z" fill="black"/>
<path d="M55.7295 71.7575V66.5754H56.7607V70.8274H59.6547V71.7575H55.7295Z" fill="black"/>
<path d="M60.3203 71.7575V66.5754H62.3827C64.179 66.5754 65.1769 67.4723 65.1769 69.1997C65.1769 70.927 64.1125 71.7575 62.3827 71.7575H60.3203ZM62.2496 70.8274C63.4472 70.8274 64.1125 70.3623 64.1125 69.1997C64.1125 68.0038 63.4804 67.5055 62.2164 67.5055H61.3515V70.8274H62.2496Z" fill="black"/>
<path d="M66.0752 71.7575V66.5754H67.1064V71.7575H66.0752Z" fill="black"/>
<path d="M72.0625 71.7575L69.4013 68.4356V71.7575H68.3701V66.5754H69.2017L71.8629 69.9969V66.5754H72.8941V71.7575H72.0625Z" fill="black"/>
<path d="M77.8845 69.7975H76.2878V69.0002H78.8492V71.2259C78.8492 71.2259 78.1173 71.8902 76.6537 71.8902C74.5913 71.8902 73.793 70.6279 73.793 69.1663C73.793 67.5718 74.7909 66.542 76.6537 66.542C78.0508 66.542 78.6496 67.0403 78.6496 67.0403L78.2504 67.9372C78.2504 67.9372 77.7847 67.4721 76.6537 67.4721C75.5892 67.4721 74.8574 68.1365 74.8574 69.1995C74.8574 70.2293 75.4229 71.0265 76.687 71.0265C77.1527 71.0265 77.5519 70.9269 77.8512 70.794V69.7975H77.8845Z" fill="black"/>
<path d="M83.6718 67.9042C83.6718 67.9042 83.0398 67.4391 81.8422 67.4391C81.0439 67.4391 80.7445 67.7048 80.7445 68.0038C80.7445 68.4357 81.2767 68.5685 82.0086 68.7014C83.4057 68.9339 84.1042 69.2993 84.1042 70.2959C84.1042 71.1928 83.3724 71.8572 81.8422 71.8572C80.1125 71.8572 79.4805 71.1264 79.4805 71.1264L79.9462 70.2959C79.9462 70.2959 80.6115 70.9271 81.8422 70.9271C82.5741 70.9271 82.9732 70.6945 82.9732 70.3291C82.9732 69.9637 82.7736 69.8641 81.7757 69.6647C80.5782 69.4654 79.6135 69.1665 79.6135 68.0702C79.6135 67.2398 80.3453 66.509 81.809 66.509C83.2061 66.509 84.0044 67.0405 84.0044 67.0405L83.6718 67.9042Z" fill="black"/>
<path d="M13.2181 0.865051V45.2784C10.5902 45.9096 7.9956 45.976 5.50077 45.4113C5.50077 45.6438 5.46751 45.9096 5.46751 46.1421C5.16813 49.2315 3.33858 52.3872 0.311523 55.244C0.311523 55.244 0.577639 55.543 0.610903 55.9749C4.86875 55.543 9.12659 54.5132 13.2181 52.8855V58.7984H70.9984V0.865051H13.2181Z" fill="#D72027"/>
<path d="M31.5471 31.9909C30.5825 28.1043 31.1812 22.889 33.2436 17.2418L25.1604 19.7664C21.7341 27.7057 21.0356 35.3792 23.231 40.4284C26.1916 38.236 29.019 35.3792 31.5471 31.9909Z" fill="white"/>
<path d="M67.7712 34.1834C62.8148 35.4457 57.8584 34.1502 54.9977 30.8283C54.8646 30.6955 54.7649 30.5294 54.6318 30.3965C54.1994 29.8318 53.8335 29.2006 53.5008 28.5363C50.8397 22.8226 54.1994 15.581 60.9853 12.392C61.5175 12.1594 62.0498 11.9269 62.582 11.7608L66.0748 8.40573C52.5029 11.3622 42.9893 20.7631 44.5859 29.8982C44.9851 32.1239 45.9831 34.117 47.4799 35.8776C42.6233 38.668 38.0661 39.2991 34.906 37.1731C34.8062 37.1067 34.7064 37.007 34.5734 36.9406C40.062 29.8982 43.4217 21.8261 44.6192 13.6543L40.7938 14.8502C40.2616 16.7768 39.5963 18.7035 38.7979 20.6302C36.9019 25.3473 34.4736 29.566 31.7126 33.1869C31.6128 33.3197 31.513 33.4526 31.4132 33.5855C31.3467 33.6519 31.2802 33.7516 31.2137 33.818C31.1139 33.9509 31.0141 34.0506 30.9143 34.1834C30.8477 34.2499 30.7812 34.3495 30.7147 34.416C30.6149 34.5488 30.5151 34.6485 30.4153 34.7814C30.3488 34.881 30.2823 34.9475 30.2157 35.0139C30.1159 35.1136 30.0494 35.2132 29.9496 35.3461C29.8831 35.4457 29.7833 35.5122 29.7168 35.6118C29.617 35.7115 29.5504 35.8111 29.4506 35.9108C29.3508 36.0105 29.2843 36.1101 29.1845 36.2098C29.118 36.3094 29.0182 36.3759 28.9517 36.4755C28.8519 36.5752 28.7521 36.6748 28.6856 36.7745C28.619 36.8409 28.5525 36.9406 28.4527 37.007C28.3529 37.1067 28.2531 37.2063 28.1533 37.306C28.0868 37.3724 28.0203 37.4389 27.9537 37.5053C27.854 37.6382 27.7209 37.7378 27.6211 37.8375C27.5546 37.9039 27.488 37.9704 27.4548 38.0036C27.3217 38.1365 27.2219 38.2361 27.0889 38.3358C27.0223 38.4022 26.9891 38.4354 26.9225 38.5019C26.7895 38.6347 26.6564 38.7344 26.5566 38.8673C26.5234 38.9005 26.4568 38.9337 26.4236 39.0001C26.2905 39.133 26.1575 39.2659 26.0244 39.3655C25.9911 39.3988 25.9579 39.432 25.9246 39.4652C25.7916 39.5981 25.6252 39.731 25.4922 39.8306C25.4589 39.8638 25.4256 39.897 25.3924 39.897C25.2261 40.0299 25.093 40.1628 24.9267 40.2957C24.8934 40.3289 24.8934 40.3289 24.8602 40.3621C24.6938 40.495 24.5275 40.6279 24.3612 40.7607C24.3279 40.7607 24.3279 40.7939 24.3279 40.7939C24.1616 40.9268 23.9953 41.0597 23.829 41.1926C23.829 41.1926 23.829 41.1926 23.7957 41.1926C18.2073 45.4446 12.1199 47.3713 6.66452 46.1754C6.4982 49.0986 4.90151 52.1215 2.17383 54.8787C10.8226 53.9818 19.4381 50.5935 26.7895 44.8134C32.4112 48.4342 41.3593 45.3117 49.2097 37.6714C51.8043 39.8306 55.2638 41.4583 59.2555 42.3552L67.7712 34.1834Z" fill="white"/>
</g>
<defs>
<clipPath id="clip0_807_118">
<rect width="85" height="72" fill="white"/>
</clipPath>
</defs>
</svg>
